<svg width="296" height="296" viewBox="0 0 296 296" fill="none" xmlns="http://www.w3.org/2000/svg">
<circle opacity="0.06" cx="148" cy="148" r="148" fill="#4B87F4"/>
<circle opacity="0.06" cx="148" cy="148" r="118" fill="#4B87F4"/>
<circle opacity="0.06" cx="148" cy="148" r="95" fill="#4B87F4"/>
<circle opacity="0.1" cx="148" cy="148" r="64" fill="#4B87F4"/>
<circle opacity="0.2" cx="148" cy="148" r="37" fill="#4B87F4"/>
<path fill-rule="evenodd" clip-rule="evenodd" d="M162.384 138.526L150.149 132.408C149.537 132.204 148.925 132 148.314 132C147.702 132 147.09 132.204 146.478 132.408L134.243 138.526C132.816 139.137 132 140.565 132 142.196C132 155.859 141.788 162.588 147.09 164.424C147.498 164.627 147.906 164.627 148.314 164.627C148.722 164.627 149.129 164.627 149.537 164.424C154.635 162.792 164.627 155.859 164.627 142.196C164.627 140.565 163.812 139.137 162.384 138.526ZM148.314 160.549C148.314 160.549 136.078 156.471 136.078 142.196L148.314 136.078L160.549 142.196C160.549 156.471 148.314 160.549 148.314 160.549Z" fill="white"/>
</svg>
