<svg width="220" height="220" viewBox="0 0 220 220" fill="none" xmlns="http://www.w3.org/2000/svg">
<path opacity="0.08" d="M220 110C220 170.751 170.751 220 110 220C49.2487 220 0 170.751 0 110C0 49.2487 49.2487 0 110 0C170.751 0 220 49.2487 220 110Z" fill="#56CCF2"/>
<path opacity="0.1" d="M207 110C207 163.572 163.572 207 110 207C56.4284 207 13 163.572 13 110C13 56.4284 56.4284 13 110 13C163.572 13 207 56.4284 207 110Z" fill="#56CCF2"/>
<circle opacity="0.12" cx="110" cy="110" r="78.2807" fill="#56CCF2"/>
<g filter="url(#filter0_d)">
<circle cx="110.263" cy="110.263" r="61.2632" fill="url(#paint0_linear)"/>
</g>
<path d="M134.926 88.5479C134.926 88.5479 128.15 82 109.5 82C90.8502 82 84.0745 88.6147 84.0745 88.6147C83.672 91.1537 83.4707 93.8263 83.4707 96.4989C83.4707 116.209 94.0032 133.448 109.5 142C124.997 133.381 135.53 116.209 135.53 96.4321C135.53 93.7595 135.328 91.1537 134.926 88.5479Z" fill="white"/>
<path d="M128.121 92.5925C128.435 92.8035 128.665 92.979 128.819 93.1033C129.097 95.0403 129.235 96.9798 129.235 98.9671C129.235 114.401 121.252 127.794 109.498 134.671C97.7488 127.845 89.7648 114.402 89.7648 99.0212C89.7648 97.0332 89.9036 95.0482 90.1799 93.1555C90.334 93.0296 90.5664 92.8508 90.8833 92.6354C91.5674 92.1706 92.6472 91.5343 94.1867 90.8921C97.2629 89.6089 102.195 88.2941 109.5 88.2941C116.807 88.2941 121.74 89.5959 124.817 90.8665C126.357 91.5023 127.437 92.1323 128.121 92.5925Z" stroke="#127BF3" stroke-width="2"/>
<path d="M109.059 82C128.025 82 134.916 88.5479 134.916 88.5479C135.325 91.1537 135.53 93.7595 135.53 96.4321C135.53 116.209 124.818 133.381 109.059 142V82Z" fill="black" fill-opacity="0.06"/>
<mask id="path-8-outside-1" maskUnits="userSpaceOnUse" x="95.706" y="96.8823" width="26" height="18" fill="black">
<rect fill="white" x="95.706" y="96.8823" width="26" height="18"/>
<path d="M121.412 97.8823L107.337 105.447L111.471 105.479L121.412 97.8823ZM105.117 110.36L109.236 107.208C102.262 108.347 97.8157 110.636 96.706 111.278C97.1337 111.278 103.256 111.204 107.818 113.761L111.09 109.896C109.089 109.872 107.091 110.029 105.117 110.364V110.36Z"/>
<path d="M105.117 110.36L109.244 107.161C102.27 108.316 97.8157 110.636 96.706 111.278C97.1337 111.278 103.256 111.204 107.818 113.765L111.101 109.896C109.097 109.872 107.094 110.03 105.117 110.368V110.36Z"/>
<path d="M111.471 105.479H114.862L121.412 97.8823L111.471 105.479ZM105.117 110.36C107.09 110.022 109.089 109.86 111.09 109.876L113.829 106.68C112.191 106.787 110.662 106.96 109.225 107.193L105.117 110.36Z"/>
<path d="M114.862 105.502H117.559L121.412 97.8823L114.862 105.502ZM111.09 109.876C112.434 109.896 113.773 110.057 115.085 110.357L117.012 106.578C115.923 106.578 114.871 106.616 113.856 106.692L111.09 109.876Z"/>
</mask>
<path d="M121.412 97.8823L107.337 105.447L111.471 105.479L121.412 97.8823ZM105.117 110.36L109.236 107.208C102.262 108.347 97.8157 110.636 96.706 111.278C97.1337 111.278 103.256 111.204 107.818 113.761L111.09 109.896C109.089 109.872 107.091 110.029 105.117 110.364V110.36Z" fill="#127DF3"/>
<path d="M105.117 110.36L109.244 107.161C102.27 108.316 97.8157 110.636 96.706 111.278C97.1337 111.278 103.256 111.204 107.818 113.765L111.101 109.896C109.097 109.872 107.094 110.03 105.117 110.368V110.36Z" fill="#127DF3"/>
<path d="M111.471 105.479H114.862L121.412 97.8823L111.471 105.479ZM105.117 110.36C107.09 110.022 109.089 109.86 111.09 109.876L113.829 106.68C112.191 106.787 110.662 106.96 109.225 107.193L105.117 110.36Z" fill="#127DF3"/>
<path d="M114.862 105.502H117.559L121.412 97.8823L114.862 105.502ZM111.09 109.876C112.434 109.896 113.773 110.057 115.085 110.357L117.012 106.578C115.923 106.578 114.871 106.616 113.856 106.692L111.09 109.876Z" fill="#127DF3"/>
<path d="M121.473 97.9618C121.516 97.9282 121.525 97.8655 121.491 97.8216C121.458 97.7777 121.395 97.7693 121.351 97.8029L121.473 97.9618ZM111.41 105.399C111.366 105.433 111.358 105.496 111.391 105.539C111.425 105.583 111.488 105.592 111.532 105.558L111.41 105.399ZM111.532 105.558L121.473 97.9618L121.351 97.8029L111.41 105.399L111.532 105.558ZM121.412 97.8823L121.59 97.9726C121.63 97.8946 121.614 97.8001 121.552 97.7391C121.489 97.6782 121.394 97.6648 121.317 97.7062L121.412 97.8823ZM107.337 105.447L107.242 105.271C107.161 105.314 107.121 105.407 107.142 105.495C107.164 105.584 107.244 105.647 107.335 105.647L107.337 105.447ZM111.471 105.479L111.469 105.679H111.471V105.479ZM105.117 110.36L104.995 110.202C104.946 110.24 104.917 110.299 104.917 110.36H105.117ZM109.236 107.208L109.358 107.367C109.431 107.312 109.456 107.213 109.42 107.129C109.383 107.045 109.294 106.996 109.204 107.011L109.236 107.208ZM96.706 111.278L96.6058 111.105C96.5275 111.151 96.4894 111.243 96.5128 111.33C96.5363 111.418 96.6155 111.478 96.706 111.478V111.278ZM107.818 113.761L107.72 113.935C107.804 113.982 107.909 113.963 107.971 113.89L107.818 113.761ZM111.09 109.896L111.242 110.025C111.292 109.966 111.304 109.883 111.271 109.812C111.239 109.742 111.169 109.696 111.092 109.696L111.09 109.896ZM105.117 110.364H104.917C104.917 110.423 104.943 110.479 104.988 110.517C105.033 110.555 105.093 110.571 105.151 110.562L105.117 110.364ZM109.244 107.161L109.366 107.319C109.439 107.263 109.464 107.165 109.427 107.081C109.391 106.997 109.302 106.949 109.211 106.964L109.244 107.161ZM107.818 113.765L107.72 113.939C107.804 113.986 107.909 113.967 107.971 113.894L107.818 113.765ZM111.101 109.896L111.254 110.025C111.304 109.966 111.315 109.883 111.283 109.813C111.251 109.742 111.181 109.696 111.103 109.696L111.101 109.896ZM105.117 110.368H104.917C104.917 110.427 104.943 110.483 104.988 110.521C105.033 110.559 105.093 110.575 105.151 110.565L105.117 110.368ZM114.862 105.479V105.679C114.92 105.679 114.975 105.653 115.013 105.609L114.862 105.479ZM113.829 106.68L113.981 106.811C114.033 106.75 114.044 106.663 114.008 106.591C113.972 106.519 113.896 106.476 113.816 106.481L113.829 106.68ZM109.225 107.193L109.193 106.995C109.16 107.001 109.129 107.014 109.102 107.034L109.225 107.193ZM114.862 105.502L114.71 105.372C114.659 105.431 114.647 105.515 114.68 105.586C114.713 105.657 114.784 105.702 114.862 105.702V105.502ZM117.559 105.502V105.702C117.634 105.702 117.703 105.66 117.737 105.593L117.559 105.502ZM115.085 110.357L115.041 110.551C115.13 110.572 115.222 110.529 115.263 110.447L115.085 110.357ZM117.012 106.578L117.19 106.669C117.221 106.607 117.219 106.533 117.182 106.474C117.146 106.414 117.081 106.378 117.012 106.378V106.578ZM113.856 106.692L113.841 106.493C113.788 106.497 113.74 106.521 113.705 106.561L113.856 106.692ZM121.317 97.7062L107.242 105.271L107.431 105.623L121.507 98.0585L121.317 97.7062ZM107.335 105.647L111.469 105.679L111.472 105.279L107.338 105.247L107.335 105.647ZM105.239 110.519L109.358 107.367L109.115 107.05L104.996 110.202L105.239 110.519ZM109.204 107.011C102.202 108.154 97.7328 110.453 96.6058 111.105L96.8062 111.452C97.8986 110.819 102.322 108.54 109.268 107.406L109.204 107.011ZM96.706 111.478C97.1387 111.478 103.21 111.407 107.72 113.935L107.916 113.586C103.302 111 97.1287 111.078 96.706 111.078V111.478ZM107.971 113.89L111.242 110.025L110.937 109.766L107.666 113.632L107.971 113.89ZM111.092 109.696C109.079 109.672 107.069 109.83 105.084 110.167L105.151 110.562C107.112 110.228 109.099 110.072 111.087 110.096L111.092 109.696ZM105.317 110.364V110.36H104.917V110.364H105.317ZM105.24 110.519L109.366 107.319L109.121 107.003L104.995 110.202L105.24 110.519ZM109.211 106.964C102.209 108.123 97.732 110.454 96.6058 111.105L96.8062 111.452C97.8994 110.819 102.331 108.508 109.277 107.358L109.211 106.964ZM96.706 111.478C97.1387 111.478 103.21 111.407 107.72 113.939L107.916 113.59C103.302 111 97.1287 111.078 96.706 111.078V111.478ZM107.971 113.894L111.254 110.025L110.949 109.766L107.666 113.635L107.971 113.894ZM111.103 109.696C109.087 109.671 107.072 109.831 105.083 110.171L105.151 110.565C107.116 110.229 109.106 110.072 111.099 110.096L111.103 109.696ZM105.317 110.368V110.36H104.917V110.368H105.317ZM111.471 105.679H114.862V105.279H111.471V105.679ZM115.013 105.609L121.563 98.0129L121.26 97.7517L114.71 105.348L115.013 105.609ZM105.151 110.558C107.113 110.221 109.099 110.06 111.088 110.076L111.091 109.676C109.079 109.66 107.068 109.823 105.083 110.163L105.151 110.558ZM111.241 110.006L113.981 106.811L113.677 106.55L110.938 109.746L111.241 110.006ZM113.816 106.481C112.173 106.588 110.637 106.762 109.193 106.995L109.257 107.39C110.687 107.159 112.21 106.986 113.842 106.88L113.816 106.481ZM109.102 107.034L104.995 110.202L105.239 110.519L109.347 107.351L109.102 107.034ZM114.862 105.702H117.559V105.302H114.862V105.702ZM117.737 105.593L121.59 97.9726L121.233 97.7921L117.38 105.412L117.737 105.593ZM121.26 97.752L114.71 105.372L115.013 105.633L121.564 98.0127L121.26 97.752ZM111.087 110.076C112.417 110.096 113.742 110.255 115.041 110.551L115.13 110.162C113.804 109.859 112.451 109.696 111.092 109.676L111.087 110.076ZM115.263 110.447L117.19 106.669L116.833 106.487L114.907 110.266L115.263 110.447ZM117.012 106.378C115.918 106.378 114.861 106.416 113.841 106.493L113.871 106.892C114.88 106.816 115.927 106.778 117.012 106.778V106.378ZM113.705 106.561L110.939 109.745L111.24 110.007L114.007 106.823L113.705 106.561Z" fill="#127DF3" mask="url(#path-8-outside-1)"/>
<defs>
<filter id="filter0_d" x="37" y="37" width="146.526" height="146.526" filterUnits="userSpaceOnUse" color-interpolation-filters="sRGB">
<feFlood flood-opacity="0" result="BackgroundImageFix"/>
<feColorMatrix in="SourceAlpha" type="matrix" values="0 0 0 0 0 0 0 0 0 0 0 0 0 0 0 0 0 0 127 0"/>
<feOffset/>
<feGaussianBlur stdDeviation="6"/>
<feColorMatrix type="matrix" values="0 0 0 0 0 0 0 0 0 0 0 0 0 0 0 0 0 0 0.12 0"/>
<feBlend mode="normal" in2="BackgroundImageFix" result="effect1_dropShadow"/>
<feBlend mode="normal" in="SourceGraphic" in2="effect1_dropShadow" result="shape"/>
</filter>
<linearGradient id="paint0_linear" x1="209.816" y1="1.1899" x2="196.432" y2="246.38" gradientUnits="userSpaceOnUse">
<stop stop-color="#127BF3"/>
<stop offset="1" stop-color="#34CEFF"/>
</linearGradient>
</defs>
</svg>
