<svg width="296" height="296" viewBox="0 0 296 296" fill="none" xmlns="http://www.w3.org/2000/svg">
<circle opacity="0.1" cx="148" cy="148" r="148" fill="#4B87F4"/>
<circle opacity="0.1" cx="148" cy="148" r="118" fill="#4B87F4"/>
<circle opacity="0.1" cx="148" cy="148" r="95" fill="#4B87F4"/>
<circle opacity="0.2" cx="148" cy="148" r="64" fill="#4B87F4"/>
<g filter="url(#filter0_d)">
<circle cx="147" cy="147" r="36" fill="url(#paint0_linear)"/>
</g>
<path fill-rule="evenodd" clip-rule="evenodd" d="M161.384 137.526L149.149 131.408C148.537 131.204 147.925 131 147.314 131C146.702 131 146.09 131.204 145.478 131.408L133.243 137.526C131.816 138.137 131 139.565 131 141.196C131 154.859 140.788 161.588 146.09 163.424C146.498 163.627 146.906 163.627 147.314 163.627C147.722 163.627 148.129 163.627 148.537 163.424C153.635 161.792 163.627 154.859 163.627 141.196C163.627 139.565 162.812 138.137 161.384 137.526ZM147.314 159.549C147.314 159.549 135.078 155.471 135.078 141.196L147.314 135.078L159.549 141.196C159.549 155.471 147.314 159.549 147.314 159.549Z" fill="white"/>
<defs>
<filter id="filter0_d" x="99" y="99" width="96" height="96" filterUnits="userSpaceOnUse" color-interpolation-filters="sRGB">
<feFlood flood-opacity="0" result="BackgroundImageFix"/>
<feColorMatrix in="SourceAlpha" type="matrix" values="0 0 0 0 0 0 0 0 0 0 0 0 0 0 0 0 0 0 127 0"/>
<feOffset/>
<feGaussianBlur stdDeviation="6"/>
<feColorMatrix type="matrix" values="0 0 0 0 0 0 0 0 0 0 0 0 0 0 0 0 0 0 0.12 0"/>
<feBlend mode="normal" in2="BackgroundImageFix" result="effect1_dropShadow"/>
<feBlend mode="normal" in="SourceGraphic" in2="effect1_dropShadow" result="shape"/>
</filter>
<linearGradient id="paint0_linear" x1="146.163" y1="72.4884" x2="146.163" y2="206.442" gradientUnits="userSpaceOnUse">
<stop stop-color="#1052F3"/>
<stop offset="1" stop-color="#15DCF4"/>
</linearGradient>
</defs>
</svg>
