<svg width="146" height="146" viewBox="0 0 146 146" fill="none" xmlns="http://www.w3.org/2000/svg">
<path opacity="0.08" d="M139.5 73C139.5 109.727 109.727 139.5 73 139.5C36.2731 139.5 6.5 109.727 6.5 73C6.5 36.2731 36.2731 6.5 73 6.5C109.727 6.5 139.5 36.2731 139.5 73Z" stroke="#263DC2"/>
<path opacity="0.04" d="M145.5 73C145.5 113.041 113.041 145.5 73 145.5C32.9594 145.5 0.5 113.041 0.5 73C0.5 32.9594 32.9594 0.5 73 0.5C113.041 0.5 145.5 32.9594 145.5 73Z" stroke="#263DC2"/>
<circle cx="73.2629" cy="73.2632" r="61.2632" fill="#BACFDF"/>
<path d="M97.9255 51.5479C97.9255 51.5479 91.1498 45 72.4999 45C53.8499 45 47.0742 51.6147 47.0742 51.6147C46.6717 54.1537 46.4705 56.8263 46.4705 59.4989C46.4705 79.2094 57.003 96.4477 72.4999 105C87.9968 96.3808 98.5293 79.2094 98.5293 59.4321C98.5293 56.7595 98.328 54.1537 97.9255 51.5479Z" fill="#9ABAD1"/>
<path d="M91.1206 55.5925C91.4343 55.8035 91.6651 55.979 91.8191 56.1033C92.0965 58.0403 92.2352 59.9798 92.2352 61.9671C92.2352 77.4007 84.2517 90.7942 72.498 97.6712C60.7486 90.8452 52.7646 77.4024 52.7646 62.0212C52.7646 60.0332 52.9034 58.0482 53.1797 56.1555C53.3337 56.0296 53.5661 55.8508 53.8831 55.6354C54.5671 55.1706 55.647 54.5343 57.1864 53.8921C60.2627 52.6089 65.1944 51.2941 72.4999 51.2941C79.8066 51.2941 84.7396 52.5959 87.8167 53.8665C89.3565 54.5023 90.4365 55.1323 91.1206 55.5925Z" stroke="#819AAC" stroke-width="2"/>
<path d="M72.0587 45C91.0248 45 97.9153 51.5479 97.9153 51.5479C98.3246 54.1537 98.5293 56.7595 98.5293 59.4321C98.5293 79.2094 87.8183 96.3808 72.0587 105V45Z" fill="black" fill-opacity="0.06"/>
<mask id="path-7-outside-1" maskUnits="userSpaceOnUse" x="58.7057" y="59.8823" width="26" height="18" fill="black">
<rect fill="white" x="58.7057" y="59.8823" width="26" height="18"/>
<path d="M84.4116 60.8823L70.3364 68.4472L74.4707 68.4787L84.4116 60.8823ZM68.117 73.3605L72.2359 70.2084C65.2619 71.3471 60.8154 73.6363 59.7057 74.2785C60.1334 74.2785 66.256 74.2036 70.818 76.7607L74.0893 72.8955C72.0889 72.8722 70.0904 73.0291 68.117 73.3644V73.3605Z"/>
<path d="M68.117 73.3605L72.2436 70.1612C65.2696 71.3156 60.8154 73.6363 59.7057 74.2785C60.1334 74.2785 66.256 74.2036 70.818 76.7647L74.1008 72.8955C72.0965 72.8716 70.094 73.0298 68.117 73.3684V73.3605Z"/>
<path d="M74.4707 68.4787H77.8614L84.4116 60.8823L74.4707 68.4787ZM68.117 73.3605C70.0902 73.0219 72.0885 72.8598 74.0893 72.8758L76.8288 69.6805C75.1912 69.7868 73.6616 69.9602 72.2244 70.1927L68.117 73.3605Z"/>
<path d="M77.8614 68.5024H80.5586L84.4116 60.8823L77.8614 68.5024ZM74.0893 72.8758C75.4337 72.8959 76.7726 73.0569 78.0849 73.3565L80.0114 69.578C78.9223 69.578 77.8704 69.6161 76.8558 69.6923L74.0893 72.8758Z"/>
</mask>
<path d="M84.4116 60.8823L70.3364 68.4472L74.4707 68.4787L84.4116 60.8823ZM68.117 73.3605L72.2359 70.2084C65.2619 71.3471 60.8154 73.6363 59.7057 74.2785C60.1334 74.2785 66.256 74.2036 70.818 76.7607L74.0893 72.8955C72.0889 72.8722 70.0904 73.0291 68.117 73.3644V73.3605Z" fill="#819AAC"/>
<path d="M68.117 73.3605L72.2436 70.1612C65.2696 71.3156 60.8154 73.6363 59.7057 74.2785C60.1334 74.2785 66.256 74.2036 70.818 76.7647L74.1008 72.8955C72.0965 72.8716 70.094 73.0298 68.117 73.3684V73.3605Z" fill="#819AAC"/>
<path d="M74.4707 68.4787H77.8614L84.4116 60.8823L74.4707 68.4787ZM68.117 73.3605C70.0902 73.0219 72.0885 72.8598 74.0893 72.8758L76.8288 69.6805C75.1912 69.7868 73.6616 69.9602 72.2244 70.1927L68.117 73.3605Z" fill="#819AAC"/>
<path d="M77.8614 68.5024H80.5586L84.4116 60.8823L77.8614 68.5024ZM74.0893 72.8758C75.4337 72.8959 76.7726 73.0569 78.0849 73.3565L80.0114 69.578C78.9223 69.578 77.8704 69.6161 76.8558 69.6923L74.0893 72.8758Z" fill="#819AAC"/>
<path d="M84.4723 60.9618C84.5162 60.9282 84.5246 60.8655 84.4911 60.8216C84.4576 60.7777 84.3948 60.7693 84.3509 60.8029L84.4723 60.9618ZM74.41 68.3993C74.3661 68.4328 74.3577 68.4956 74.3913 68.5395C74.4248 68.5833 74.4875 68.5917 74.5314 68.5582L74.41 68.3993ZM74.5314 68.5582L84.4723 60.9618L84.3509 60.8029L74.41 68.3993L74.5314 68.5582ZM84.4116 60.8823L84.5901 60.9726C84.6295 60.8946 84.6138 60.8001 84.5513 60.7391C84.4887 60.6782 84.3939 60.6648 84.3169 60.7062L84.4116 60.8823ZM70.3364 68.4472L70.2417 68.271C70.1612 68.3143 70.1203 68.4066 70.1422 68.4953C70.1642 68.584 70.2435 68.6465 70.3348 68.6472L70.3364 68.4472ZM74.4707 68.4787L74.4692 68.6787H74.4707V68.4787ZM68.117 73.3605L67.9945 73.2024C67.9456 73.2403 67.917 73.2986 67.917 73.3605H68.117ZM72.2359 70.2084L72.3575 70.3672C72.4303 70.3115 72.4559 70.2134 72.4196 70.1292C72.3832 70.0449 72.2942 69.9963 72.2037 70.011L72.2359 70.2084ZM59.7057 74.2785L59.6056 74.1054C59.5273 74.1507 59.4891 74.243 59.5126 74.3304C59.5361 74.4177 59.6153 74.4785 59.7057 74.4785V74.2785ZM70.818 76.7607L70.7202 76.9352C70.8038 76.982 70.9088 76.963 70.9707 76.8899L70.818 76.7607ZM74.0893 72.8955L74.2419 73.0247C74.292 72.9656 74.3034 72.8829 74.2712 72.8124C74.239 72.742 74.169 72.6964 74.0916 72.6955L74.0893 72.8955ZM68.117 73.3644H67.917C67.917 73.4233 67.943 73.4792 67.988 73.5172C68.033 73.5552 68.0924 73.5714 68.1505 73.5616L68.117 73.3644ZM72.2436 70.1612L72.3662 70.3192C72.4385 70.2631 72.4636 70.165 72.4269 70.0811C72.3903 69.9972 72.3013 69.9489 72.211 69.9638L72.2436 70.1612ZM70.818 76.7647L70.7201 76.9391C70.8036 76.9859 70.9086 76.9671 70.9705 76.8941L70.818 76.7647ZM74.1008 72.8955L74.2533 73.0249C74.3035 72.9659 74.3149 72.8831 74.2828 72.8126C74.2507 72.7421 74.1807 72.6965 74.1032 72.6956L74.1008 72.8955ZM68.117 73.3684H67.917C67.917 73.4273 67.943 73.4832 67.9881 73.5212C68.0331 73.5592 68.0927 73.5754 68.1508 73.5655L68.117 73.3684ZM77.8614 68.4787V68.6787C77.9196 68.6787 77.9749 68.6534 78.0129 68.6093L77.8614 68.4787ZM76.8288 69.6805L76.9806 69.8106C77.033 69.7495 77.0437 69.663 77.0077 69.591C76.9717 69.5191 76.8961 69.4757 76.8158 69.4809L76.8288 69.6805ZM72.2244 70.1927L72.1924 69.9952C72.1596 70.0005 72.1286 70.014 72.1022 70.0343L72.2244 70.1927ZM77.8614 68.5024L77.7098 68.372C77.6588 68.4313 77.647 68.5148 77.6797 68.5858C77.7123 68.6568 77.7833 68.7024 77.8614 68.7024V68.5024ZM80.5586 68.5024V68.7024C80.634 68.7024 80.703 68.6599 80.737 68.5926L80.5586 68.5024ZM78.0849 73.3565L78.0404 73.5515C78.1297 73.5719 78.2215 73.529 78.2631 73.4474L78.0849 73.3565ZM80.0114 69.578L80.1896 69.6689C80.2212 69.6069 80.2183 69.5329 80.182 69.4735C80.1456 69.4142 80.081 69.378 80.0114 69.378V69.578ZM76.8558 69.6923L76.8408 69.4928C76.7882 69.4968 76.7394 69.5213 76.7048 69.5611L76.8558 69.6923ZM84.3169 60.7062L70.2417 68.271L70.4311 68.6234L84.5063 61.0585L84.3169 60.7062ZM70.3348 68.6472L74.4692 68.6787L74.4722 68.2787L70.3379 68.2472L70.3348 68.6472ZM68.2385 73.5193L72.3575 70.3672L72.1144 70.0496L67.9955 73.2016L68.2385 73.5193ZM72.2037 70.011C65.2018 71.1542 60.7325 73.4532 59.6056 74.1054L59.8059 74.4516C60.8983 73.8194 65.3219 71.5399 72.2682 70.4058L72.2037 70.011ZM59.7057 74.4785C60.1384 74.4785 66.2098 74.407 70.7202 76.9352L70.9158 76.5863C66.3022 74.0002 60.1284 74.0785 59.7057 74.0785V74.4785ZM70.9707 76.8899L74.2419 73.0247L73.9366 72.7663L70.6653 76.6315L70.9707 76.8899ZM74.0916 72.6955C72.0792 72.6721 70.0688 72.8299 68.0835 73.1672L68.1505 73.5616C70.1121 73.2283 72.0986 73.0724 74.0869 73.0955L74.0916 72.6955ZM68.317 73.3644V73.3605H67.917V73.3644H68.317ZM68.2395 73.5185L72.3662 70.3192L72.1211 70.0031L67.9945 73.2024L68.2395 73.5185ZM72.211 69.9638C65.2086 71.123 60.7317 73.4536 59.6056 74.1054L59.8059 74.4516C60.8991 73.8189 65.3306 71.5082 72.2763 70.3585L72.211 69.9638ZM59.7057 74.4785C60.1384 74.4785 66.2097 74.407 70.7201 76.9391L70.9159 76.5903C66.3022 74.0003 60.1284 74.0785 59.7057 74.0785V74.4785ZM70.9705 76.8941L74.2533 73.0249L73.9483 72.7662L70.6655 76.6353L70.9705 76.8941ZM74.1032 72.6956C72.0867 72.6715 70.0722 72.8307 68.0832 73.1712L68.1508 73.5655C70.1158 73.229 72.1062 73.0718 74.0984 73.0955L74.1032 72.6956ZM68.317 73.3684V73.3605H67.917V73.3684H68.317ZM74.4707 68.6787H77.8614V68.2787H74.4707V68.6787ZM78.0129 68.6093L84.5631 61.0129L84.2602 60.7517L77.71 68.3481L78.0129 68.6093ZM68.1508 73.5576C70.1123 73.2211 72.0988 73.0599 74.0877 73.0758L74.0909 72.6758C72.0783 72.6597 70.0681 72.8228 68.0832 73.1633L68.1508 73.5576ZM74.2411 73.006L76.9806 69.8106L76.677 69.5503L73.9374 72.7457L74.2411 73.006ZM76.8158 69.4809C75.1723 69.5876 73.6363 69.7617 72.1924 69.9952L72.2563 70.3901C73.6869 70.1587 75.2102 69.986 76.8418 69.88L76.8158 69.4809ZM72.1022 70.0343L67.9949 73.2021L68.2391 73.5188L72.3465 70.351L72.1022 70.0343ZM77.8614 68.7024H80.5586V68.3024H77.8614V68.7024ZM80.737 68.5926L84.5901 60.9726L84.2332 60.7921L80.3801 68.4121L80.737 68.5926ZM84.26 60.752L77.7098 68.372L78.0131 68.6328L84.5633 61.0127L84.26 60.752ZM74.0863 73.0758C75.4167 73.0956 76.7417 73.255 78.0404 73.5515L78.1294 73.1615C76.8035 72.8588 75.4507 72.6961 74.0922 72.6759L74.0863 73.0758ZM78.2631 73.4474L80.1896 69.6689L79.8333 69.4872L77.9067 73.2657L78.2631 73.4474ZM80.0114 69.378C78.9176 69.378 77.8608 69.4163 76.8408 69.4928L76.8707 69.8917C77.8801 69.8159 78.9269 69.778 80.0114 69.778V69.378ZM76.7048 69.5611L73.9383 72.7446L74.2402 73.007L77.0067 69.8235L76.7048 69.5611Z" fill="#819AAC" mask="url(#path-7-outside-1)"/>
</svg>
