<svg width="103" height="12" viewBox="0 0 103 12" fill="none" xmlns="http://www.w3.org/2000/svg">
<path d="M2.112 0.256001V11.552H0V0.256001H2.112Z" fill="#3D4045"/>
<path d="M20.2201 0.320001V11.552H17.5321L10.2041 2.912V11.552H8.02812V0.320001H10.7801L18.1081 8.912V0.320001H20.2201Z" fill="#3D4045"/>
<path d="M37.7824 1.584C37.3024 2.288 36.9184 2.832 36.6304 3.216C36.2037 2.87467 35.4944 2.58133 34.5024 2.336C33.5104 2.08 32.5344 1.952 31.5744 1.952C30.625 1.952 29.841 2.10133 29.2224 2.4C28.6037 2.688 28.2944 3.12 28.2944 3.696C28.2944 3.97333 28.465 4.192 28.8064 4.352C29.1477 4.50133 29.5904 4.608 30.1344 4.672C30.689 4.72533 31.297 4.77867 31.9584 4.832C32.6304 4.87467 33.297 4.94933 33.9584 5.056C34.6304 5.16267 35.2384 5.312 35.7824 5.504C36.337 5.68533 36.785 5.97867 37.1264 6.384C37.4677 6.77867 37.6384 7.26933 37.6384 7.856C37.6384 8.976 37.1104 9.936 36.0544 10.736C34.9984 11.5253 33.553 11.92 31.7184 11.92C30.545 11.92 29.4784 11.792 28.5184 11.536C27.569 11.28 26.8704 11.0187 26.4224 10.752C25.985 10.4747 25.6224 10.1813 25.3344 9.872L26.7584 8.288C28.113 9.408 29.7504 9.968 31.6704 9.968C32.1077 9.968 32.529 9.94133 32.9344 9.888C33.3504 9.824 33.745 9.728 34.1184 9.6C34.5024 9.46133 34.8064 9.27467 35.0304 9.04C35.2544 8.79467 35.3664 8.50667 35.3664 8.176C35.3664 7.81333 35.1904 7.53067 34.8384 7.328C34.497 7.12533 34.049 6.992 33.4944 6.928C32.9397 6.85333 32.3264 6.79467 31.6544 6.752C30.9824 6.70933 30.305 6.64533 29.6224 6.56C28.9504 6.464 28.337 6.32533 27.7824 6.144C27.2277 5.96267 26.7744 5.66933 26.4224 5.264C26.081 4.848 25.9104 4.32533 25.9104 3.696C25.9104 2.58667 26.4704 1.696 27.5904 1.024C28.7104 0.341333 30.1237 0 31.8304 0C33.1104 0 34.2677 0.16 35.3024 0.48C36.337 0.8 37.1637 1.168 37.7824 1.584Z" fill="#3D4045"/>
<path d="M53.151 0.320001V2.224H48.495V11.552H46.383V2.224H41.855V0.320001H53.151Z" fill="#3D4045"/>
<path d="M69.5459 11.552H67.0659L65.6099 8.608H58.6019L56.9379 11.552H54.3619L61.1139 0.256001H63.6899L69.5459 11.552ZM62.3299 2L59.6739 6.704H64.6659L62.3299 2Z" fill="#3D4045"/>
<path d="M86.3014 0.320001V11.552H83.6134L76.2854 2.912V11.552H74.1094V0.320001H76.8614L84.1894 8.912V0.320001H86.3014Z" fill="#3D4045"/>
<path d="M102.392 0.320001V2.224H97.7356V11.552H95.6236V2.224H91.0956V0.320001H102.392Z" fill="#3D4045"/>
</svg>
