<svg width="103" height="69" viewBox="0 0 103 69" fill="none" xmlns="http://www.w3.org/2000/svg">
<path d="M79.12 0L42.59 19.2L53.32 19.28L79.12 0ZM36.83 31.67L47.52 23.67C29.42 26.56 17.88 32.37 15 34C16.11 34 32 33.81 43.84 40.3L52.33 30.49C47.1384 30.4309 41.9517 30.8291 36.83 31.68V31.67Z" fill="#1AB5E9"/>
<path d="M53.32 19.28H62.12L79.12 0L53.32 19.28ZM36.83 31.67C41.9512 30.8108 47.1374 30.3993 52.33 30.44L59.44 22.33C55.19 22.6 51.22 23.04 47.49 23.63L36.83 31.67Z" fill="#025387"/>
<path d="M62.12 19.34H69.12L79.12 0L62.12 19.34ZM52.33 30.44C55.8193 30.4908 59.2942 30.8996 62.7 31.66L67.7 22.07C64.8733 22.07 62.1433 22.1667 59.51 22.36L52.33 30.44Z" fill="#7F8FA4"/>
<path d="M2.112 57.256V68.552H0V57.256H2.112Z" fill="#2E2E3C"/>
<path d="M20.2201 57.32V68.552H17.5321L10.2041 59.912V68.552H8.02812V57.32H10.7801L18.1081 65.912V57.32H20.2201Z" fill="#2E2E3C"/>
<path d="M37.7824 58.584C37.3024 59.288 36.9184 59.832 36.6304 60.216C36.2037 59.8747 35.4944 59.5813 34.5024 59.336C33.5104 59.08 32.5344 58.952 31.5744 58.952C30.625 58.952 29.841 59.1013 29.2224 59.4C28.6037 59.688 28.2944 60.12 28.2944 60.696C28.2944 60.9733 28.465 61.192 28.8064 61.352C29.1477 61.5013 29.5904 61.608 30.1344 61.672C30.689 61.7253 31.297 61.7787 31.9584 61.832C32.6304 61.8747 33.297 61.9493 33.9584 62.056C34.6304 62.1627 35.2384 62.312 35.7824 62.504C36.337 62.6853 36.785 62.9787 37.1264 63.384C37.4677 63.7787 37.6384 64.2693 37.6384 64.856C37.6384 65.976 37.1104 66.936 36.0544 67.736C34.9984 68.5253 33.553 68.92 31.7184 68.92C30.545 68.92 29.4784 68.792 28.5184 68.536C27.569 68.28 26.8704 68.0187 26.4224 67.752C25.985 67.4747 25.6224 67.1813 25.3344 66.872L26.7584 65.288C28.113 66.408 29.7504 66.968 31.6704 66.968C32.1077 66.968 32.529 66.9413 32.9344 66.888C33.3504 66.824 33.745 66.728 34.1184 66.6C34.5024 66.4613 34.8064 66.2747 35.0304 66.04C35.2544 65.7947 35.3664 65.5067 35.3664 65.176C35.3664 64.8133 35.1904 64.5307 34.8384 64.328C34.497 64.1253 34.049 63.992 33.4944 63.928C32.9397 63.8533 32.3264 63.7947 31.6544 63.752C30.9824 63.7093 30.305 63.6453 29.6224 63.56C28.9504 63.464 28.337 63.3253 27.7824 63.144C27.2277 62.9627 26.7744 62.6693 26.4224 62.264C26.081 61.848 25.9104 61.3253 25.9104 60.696C25.9104 59.5867 26.4704 58.696 27.5904 58.024C28.7104 57.3413 30.1237 57 31.8304 57C33.1104 57 34.2677 57.16 35.3024 57.48C36.337 57.8 37.1637 58.168 37.7824 58.584Z" fill="#2E2E3C"/>
<path d="M53.151 57.32V59.224H48.495V68.552H46.383V59.224H41.855V57.32H53.151Z" fill="#2E2E3C"/>
<path d="M69.5459 68.552H67.0659L65.6099 65.608H58.6019L56.9379 68.552H54.3619L61.1139 57.256H63.6899L69.5459 68.552ZM62.3299 59L59.6739 63.704H64.6659L62.3299 59Z" fill="#2E2E3C"/>
<path d="M86.3014 57.32V68.552H83.6134L76.2854 59.912V68.552H74.1094V57.32H76.8614L84.1894 65.912V57.32H86.3014Z" fill="#2E2E3C"/>
<path d="M102.392 57.32V59.224H97.7356V68.552H95.6236V59.224H91.0956V57.32H102.392Z" fill="#2E2E3C"/>
</svg>
