<svg width="98" height="98.2" viewBox="0 0 98 98.2" fill="none" xmlns="http://www.w3.org/2000/svg">
<g filter="url(#filter0_d)">
<circle cx="49.2632" cy="48.7368" r="48.4" fill="url(#paint0_linear)"/>
</g>
<path d="M64.0523 35.7151C64.0523 35.7151 59.9892 31.7887 48.8057 31.7887C37.6221 31.7887 33.559 35.7552 33.559 35.7552C33.3176 37.2777 33.197 38.8804 33.197 40.483C33.197 52.3025 39.5129 62.6396 48.8057 67.768C58.0985 62.5995 64.4144 52.3025 64.4144 40.4429C64.4144 38.8403 64.2937 37.2777 64.0523 35.7151Z" fill="white"/>
<path d="M59.7484 38.4727C59.8552 38.5445 59.9444 38.6087 60.0167 38.663C60.1655 39.7528 60.2399 40.8449 60.2399 41.9631C60.2399 50.9913 55.6157 58.8239 48.804 62.9084C41.9964 58.8533 37.3718 50.993 37.3718 41.9955C37.3718 40.8766 37.4462 39.7605 37.5941 38.6933C37.6672 38.6376 37.758 38.5716 37.8671 38.4974C38.2557 38.2334 38.8795 37.8648 39.7771 37.4903C41.5697 36.7426 44.4743 35.9633 48.8058 35.9633C53.1387 35.9633 56.0444 36.735 57.8378 37.4755C58.7358 37.8463 59.3598 38.2113 59.7484 38.4727Z" stroke="#127BF3" stroke-width="2"/>
<path d="M48.5412 31.7886C59.9143 31.7886 64.0462 35.7151 64.0462 35.7151C64.2917 37.2777 64.4144 38.8403 64.4144 40.4429C64.4144 52.3025 57.9915 62.5995 48.5412 67.768V31.7886Z" fill="black" fill-opacity="0.06"/>
<path d="M55.9488 41.3126L47.5084 45.8489L49.9876 45.8678L55.9488 41.3126ZM46.1776 48.7952L48.6475 46.905C44.4655 47.5878 41.7992 48.9606 41.1337 49.3457C41.3902 49.3457 45.0616 49.3008 47.7973 50.8342L49.7589 48.5164C48.5594 48.5024 47.361 48.5965 46.1776 48.7975V48.7952Z" fill="#127DF3"/>
<path d="M46.1776 48.7952L48.6522 46.8767C44.4701 47.569 41.7992 48.9606 41.1337 49.3457C41.3902 49.3457 45.0616 49.3008 47.7973 50.8365L49.7658 48.5164C48.5639 48.502 47.3631 48.5969 46.1776 48.7999V48.7952Z" fill="#127DF3"/>
<path d="M49.9876 45.8678H52.0209L55.9488 41.3126L49.9876 45.8678ZM46.1776 48.7952C47.3608 48.5922 48.5591 48.4949 49.7589 48.5046L51.4017 46.5884C50.4197 46.6522 49.5024 46.7562 48.6406 46.8956L46.1776 48.7952Z" fill="#127DF3"/>
<path d="M52.0209 45.882H53.6383L55.9488 41.3126L52.0209 45.882ZM49.7589 48.5046C50.5651 48.5166 51.368 48.6132 52.1549 48.7928L53.3102 46.527C52.6571 46.527 52.0263 46.5498 51.4178 46.5955L49.7589 48.5046Z" fill="#127DF3"/>
<path d="M56.0095 41.392C56.0534 41.3585 56.0618 41.2957 56.0282 41.2519C55.9947 41.208 55.9319 41.1996 55.8881 41.2331L56.0095 41.392ZM49.9269 45.7884C49.883 45.8219 49.8746 45.8846 49.9082 45.9285C49.9417 45.9724 50.0045 45.9808 50.0483 45.9473L49.9269 45.7884ZM50.0483 45.9473L56.0095 41.392L55.8881 41.2331L49.9269 45.7884L50.0483 45.9473ZM55.9488 41.3126L56.1272 41.4028C56.1667 41.3249 56.1509 41.2304 56.0884 41.1694C56.0259 41.1084 55.931 41.0951 55.8541 41.1364L55.9488 41.3126ZM47.5084 45.8489L47.4138 45.6727C47.3333 45.716 47.2923 45.8083 47.3143 45.897C47.3363 45.9857 47.4156 46.0482 47.5069 46.0489L47.5084 45.8489ZM49.9876 45.8678L49.9861 46.0678H49.9876V45.8678ZM46.1776 48.7952L46.055 48.6371C46.0062 48.675 45.9776 48.7333 45.9776 48.7952H46.1776ZM48.6475 46.905L48.7691 47.0639C48.8419 47.0081 48.8675 46.91 48.8312 46.8258C48.7948 46.7416 48.7058 46.6929 48.6153 46.7076L48.6475 46.905ZM41.1337 49.3457L41.0335 49.1726C40.9552 49.2179 40.9171 49.3101 40.9406 49.3975C40.964 49.4849 41.0432 49.5457 41.1337 49.5457V49.3457ZM47.7973 50.8342L47.6995 51.0086C47.783 51.0555 47.888 51.0365 47.9499 50.9634L47.7973 50.8342ZM49.7589 48.5164L49.9116 48.6456C49.9616 48.5865 49.973 48.5037 49.9408 48.4333C49.9086 48.3628 49.8387 48.3173 49.7612 48.3164L49.7589 48.5164ZM46.1776 48.7975H45.9776C45.9776 48.8564 46.0036 48.9123 46.0486 48.9503C46.0936 48.9883 46.153 49.0046 46.2111 48.9947L46.1776 48.7975ZM48.6522 46.8767L48.7747 47.0347C48.8471 46.9786 48.8721 46.8806 48.8354 46.7966C48.7988 46.7127 48.7098 46.6644 48.6195 46.6794L48.6522 46.8767ZM47.7973 50.8365L47.6994 51.0109C47.7828 51.0578 47.8878 51.0389 47.9498 50.9659L47.7973 50.8365ZM49.7658 48.5164L49.9183 48.6458C49.9685 48.5867 49.98 48.504 49.9478 48.4334C49.9157 48.3629 49.8457 48.3173 49.7682 48.3164L49.7658 48.5164ZM46.1776 48.7999H45.9776C45.9776 48.8589 46.0036 48.9148 46.0487 48.9528C46.0937 48.9908 46.1532 49.007 46.2113 48.997L46.1776 48.7999ZM52.0209 45.8678V46.0678C52.0791 46.0678 52.1344 46.0425 52.1724 45.9984L52.0209 45.8678ZM51.4017 46.5884L51.5535 46.7186C51.6059 46.6575 51.6165 46.571 51.5806 46.499C51.5446 46.427 51.469 46.3836 51.3887 46.3889L51.4017 46.5884ZM48.6406 46.8956L48.6087 46.6981C48.5758 46.7035 48.5448 46.7169 48.5185 46.7372L48.6406 46.8956ZM52.0209 45.882L51.8692 45.7516C51.8183 45.8109 51.8065 45.8944 51.8391 45.9654C51.8717 46.0365 51.9427 46.082 52.0209 46.082V45.882ZM53.6383 45.882V46.082C53.7137 46.082 53.7827 46.0396 53.8167 45.9722L53.6383 45.882ZM52.1549 48.7928L52.1104 48.9878C52.1997 49.0082 52.2915 48.9653 52.3331 48.8837L52.1549 48.7928ZM53.3102 46.527L53.4883 46.6178C53.5199 46.5558 53.5171 46.4819 53.4807 46.4225C53.4443 46.3632 53.3798 46.327 53.3102 46.327V46.527ZM51.4178 46.5955L51.4029 46.3961C51.3503 46.4 51.3015 46.4246 51.2669 46.4643L51.4178 46.5955ZM55.8541 41.1364L47.4138 45.6727L47.6031 46.0251L56.0435 41.4887L55.8541 41.1364ZM47.5069 46.0489L49.9861 46.0678L49.9892 45.6678L47.51 45.6489L47.5069 46.0489ZM46.2991 48.954L48.7691 47.0639L48.526 46.7462L46.056 48.6363L46.2991 48.954ZM48.6153 46.7076C44.4054 47.395 41.7163 48.7775 41.0335 49.1726L41.2339 49.5188C41.8821 49.1437 44.5255 47.7807 48.6798 47.1024L48.6153 46.7076ZM41.1337 49.5457C41.3952 49.5457 45.0154 49.5042 47.6995 51.0086L47.8951 50.6597C45.1078 49.0974 41.3852 49.1457 41.1337 49.1457V49.5457ZM47.9499 50.9634L49.9116 48.6456L49.6062 48.3872L47.6446 50.705L47.9499 50.9634ZM49.7612 48.3164C48.5497 48.3023 47.3393 48.3973 46.1441 48.6004L46.2111 48.9947C47.3826 48.7957 48.569 48.7025 49.7566 48.7164L49.7612 48.3164ZM46.3776 48.7975V48.7952H45.9776V48.7975H46.3776ZM46.3001 48.9532L48.7747 47.0347L48.5296 46.7186L46.055 48.6371L46.3001 48.9532ZM48.6195 46.6794C44.4091 47.3763 41.7155 48.7779 41.0335 49.1726L41.2339 49.5188C41.8829 49.1432 44.5311 47.7616 48.6848 47.074L48.6195 46.6794ZM41.1337 49.5457C41.3952 49.5457 45.0153 49.5042 47.6994 51.0109L47.8952 50.6621C45.1079 49.0974 41.3852 49.1457 41.1337 49.1457V49.5457ZM47.9498 50.9659L49.9183 48.6458L49.6133 48.387L47.6448 50.7071L47.9498 50.9659ZM49.7682 48.3164C48.5542 48.3019 47.3413 48.3977 46.1438 48.6028L46.2113 48.997C47.3849 48.7961 48.5736 48.7022 49.7634 48.7164L49.7682 48.3164ZM46.3776 48.7999V48.7952H45.9776V48.7999H46.3776ZM49.9876 46.0678H52.0209V45.6678H49.9876V46.0678ZM52.1724 45.9984L56.1002 41.4432L55.7973 41.182L51.8694 45.7372L52.1724 45.9984ZM46.2114 48.9923C47.383 48.7913 48.5694 48.695 49.7573 48.7046L49.7605 48.3046C48.5489 48.2948 47.3387 48.393 46.1438 48.598L46.2114 48.9923ZM49.9107 48.6347L51.5535 46.7186L51.2498 46.4583L49.6071 48.3744L49.9107 48.6347ZM51.3887 46.3889C50.4007 46.453 49.4771 46.5577 48.6087 46.6981L48.6725 47.093C49.5277 46.9547 50.4387 46.8514 51.4146 46.788L51.3887 46.3889ZM48.5185 46.7372L46.0554 48.6368L46.2997 48.9535L48.7627 47.0539L48.5185 46.7372ZM52.0209 46.082H53.6383V45.682H52.0209V46.082ZM53.8167 45.9722L56.1272 41.4028L55.7703 41.2223L53.4598 45.7917L53.8167 45.9722ZM55.7971 41.1822L51.8692 45.7516L52.1726 46.0124L56.1004 41.4429L55.7971 41.1822ZM49.7559 48.7045C50.5481 48.7163 51.3371 48.8112 52.1104 48.9878L52.1994 48.5978C51.3989 48.4151 50.5821 48.3168 49.7619 48.3046L49.7559 48.7045ZM52.3331 48.8837L53.4883 46.6178L53.132 46.4362L51.9767 48.702L52.3331 48.8837ZM53.3102 46.327C52.6524 46.327 52.0166 46.35 51.4029 46.3961L51.4328 46.795C52.0359 46.7497 52.6617 46.727 53.3102 46.727V46.327ZM51.2669 46.4643L49.6079 48.3734L49.9099 48.6357L51.5688 46.7267L51.2669 46.4643Z" fill="#127DF3" mask="url(#path-5-outside-1)"/>
<defs>
<filter id="filter0_d" x="0.526367" y="0" width="97.4737" height="97.4737" filterUnits="userSpaceOnUse" color-interpolation-filters="sRGB">
<feFlood flood-opacity="0" result="BackgroundImageFix"/>
<feColorMatrix in="SourceAlpha" type="matrix" values="0 0 0 0 0 0 0 0 0 0 0 0 0 0 0 0 0 0 127 0"/>
<feOffset/>
<feGaussianBlur stdDeviation="6"/>
<feColorMatrix type="matrix" values="0 0 0 0 0 0 0 0 0 0 0 0 0 0 0 0 0 0 0.12 0"/>
<feBlend mode="normal" in2="BackgroundImageFix" result="effect1_dropShadow"/>
<feBlend mode="normal" in="SourceGraphic" in2="effect1_dropShadow" result="shape"/>
</filter>
<linearGradient id="paint0_linear" x1="48.4089" y1="-27.2999" x2="48.4089" y2="109.395" gradientUnits="userSpaceOnUse">
<stop stop-color="#1052F3"/>
<stop offset="1" stop-color="#15DCF4"/>
</linearGradient>
</defs>
</svg>
