<svg width="163" height="78" viewBox="0 0 163 78" fill="none" xmlns="http://www.w3.org/2000/svg">
<g clip-path="url(#clip0)">
<path d="M100.485 2.18797C100.171 1.8706 99.7439 1.69231 99.2988 1.69231H12.0344C11.5893 1.69231 11.1625 1.8706 10.8478 2.18797C10.5331 2.50534 10.3563 2.93579 10.3563 3.38462V58.3846H9.51718L8.6781 59.2308V3.38462C8.6781 2.48696 9.03171 1.62607 9.66114 0.991328C10.2906 0.35659 11.1443 0 12.0344 0H99.2988C100.189 0 101.043 0.35659 101.672 0.991328C102.302 1.62607 102.655 2.48696 102.655 3.38462V68.5385H38.885V67.6923L39.7241 66.8462H100.977V3.38462C100.977 2.93579 100.8 2.50534 100.485 2.18797Z" fill="#FF9500"/>
<path d="M12.0344 67.6923V68.5385H20.4252V67.6923L19.5861 66.8462H12.0344V67.6923Z" fill="#FF9500"/>
<path d="M130.65 16.0829C129.927 15.5424 129.054 15.2444 128.155 15.2308H102.655V66.8462H116.92V67.6923V68.5385H102.655C102.21 68.5385 101.783 68.3602 101.469 68.0428C101.154 67.7254 100.977 67.295 100.977 66.8462V15.2308C100.977 14.7819 101.154 14.3515 101.469 14.0341C101.783 13.7168 102.21 13.5385 102.655 13.5385H128.155L128.146 13.53C129.396 13.547 130.609 13.9575 131.615 14.7039C132.622 15.4504 133.372 16.4955 133.76 17.6931L136.059 24.4623C137.471 28.6987 140.487 32.1998 144.45 34.2015L145.012 34.4723C146.416 35.1881 147.593 36.2851 148.411 37.6396C149.23 38.9942 149.657 40.5524 149.644 42.1385V45.2692L148.805 44.4231H147.966V42.1385C147.982 40.8698 147.645 39.6219 146.992 38.5372C146.339 37.4525 145.397 36.5747 144.274 36.0038L143.711 35.7331C141.548 34.6476 139.619 33.1416 138.035 31.3017C136.451 29.4619 135.244 27.3244 134.482 25.0123L132.182 18.2431C131.908 17.3789 131.372 16.6233 130.65 16.0829Z" fill="#FF9500"/>
<path d="M149.152 68.0428C148.837 68.3602 148.411 68.5385 147.966 68.5385H137.058V67.6923V66.8462H147.966H148.805H149.644C149.644 67.295 149.467 67.7254 149.152 68.0428Z" fill="#FF9500"/>
<path d="M148.805 53.7308H147.966V58.3846H148.805H149.644V53.3077L148.805 53.7308Z" fill="#FF9500"/>
<path d="M151.076 60.3248C150.919 60.1661 150.705 60.0769 150.483 60.0769H135.379L134.54 59.2308L133.701 58.3846H150.483C151.15 58.3846 151.791 58.6521 152.263 59.1281C152.735 59.6042 153 60.2498 153 60.9231V66C153 66.6732 152.735 67.3189 152.263 67.795C151.791 68.271 151.15 68.5385 150.483 68.5385H137.057V67.6923V66.8462H150.483C150.705 66.8462 150.919 66.757 151.076 66.5983C151.233 66.4396 151.322 66.2244 151.322 66V60.9231C151.322 60.6987 151.233 60.4835 151.076 60.3248Z" fill="#FF9500"/>
<path d="M8.92392 66.5983C9.08128 66.757 9.2947 66.8462 9.51724 66.8462H19.5862V67.6923V68.5385H9.51724C8.84963 68.5385 8.20936 68.271 7.73728 67.795C7.26521 67.3189 7 66.6732 7 66V60.9231C7 60.2498 7.26521 59.6042 7.73728 59.1281C8.20936 58.6521 8.84963 58.3846 9.51724 58.3846H22.1034H37.2069H120.276L119.437 59.2308L118.598 60.0769H37.2069V59.2308V58.3846H22.1034L21.2644 59.2308L20.4253 60.0769H9.51724C9.2947 60.0769 9.08128 60.1661 8.92392 60.3248C8.76656 60.4835 8.67816 60.6987 8.67816 60.9231V66C8.67816 66.2244 8.76656 66.4396 8.92392 66.5983Z" fill="#FF9500"/>
<path d="M39.7241 67.6923V68.5385H116.92V67.6923V66.8462H39.7241V67.6923Z" fill="#FF9500"/>
<path d="M147.966 45.6923C148.188 45.6923 148.401 45.7815 148.559 45.9402C148.716 46.0988 148.805 46.314 148.805 46.5385V51.6154C148.805 51.8398 148.716 52.055 148.559 52.2137C148.401 52.3724 148.188 52.4615 147.966 52.4615H143.77C143.325 52.4615 142.898 52.2832 142.584 51.9659C142.269 51.6485 142.092 51.2181 142.092 50.7692V47.3846C142.092 46.9358 142.269 46.5053 142.584 46.188C142.898 45.8706 143.325 45.6923 143.77 45.6923H147.966ZM147.966 44H143.77C142.88 44 142.026 44.3566 141.397 44.9913C140.767 45.6261 140.414 46.487 140.414 47.3846V50.7692C140.414 51.6669 140.767 52.5278 141.397 53.1625C142.026 53.7973 142.88 54.1538 143.77 54.1538H147.966C148.633 54.1538 149.273 53.8864 149.745 53.4103C150.218 52.9343 150.483 52.2886 150.483 51.6154V46.5385C150.483 45.8652 150.218 45.2196 149.745 44.7435C149.273 44.2675 148.633 44 147.966 44Z" fill="#FF9500"/>
<path d="M124.035 21.1538C127.24 21.1538 128.23 22.1185 128.574 24.0477C129.096 27.7326 130.841 31.1302 133.525 33.6854L133.701 33.8462H107.69V21.1538H124.035ZM124.035 19.4615H107.69C107.245 19.4615 106.818 19.6398 106.503 19.9572C106.188 20.2746 106.011 20.705 106.011 21.1538V33.8462C106.011 34.295 106.188 34.7254 106.503 35.0428C106.818 35.3602 107.245 35.5385 107.69 35.5385H133.701C134.04 35.5393 134.372 35.4365 134.652 35.2437C134.932 35.0508 135.147 34.777 135.27 34.4582C135.392 34.1394 135.416 33.7907 135.339 33.4579C135.261 33.1251 135.085 32.8238 134.834 32.5938L134.658 32.4331C132.249 30.139 130.686 27.0861 130.227 23.7769C129.623 19.9523 126.603 19.4615 124.035 19.4615Z" fill="#FF9500"/>
<path d="M30.5446 29.37V35.2085H29.5042V29.37H30.5446Z" fill="#FF9500"/>
<path d="M39.506 29.4038V35.2085H38.1719L34.547 30.7408V35.2085H33.473V29.4038H34.8323L38.4572 33.8462V29.4038H39.506Z" fill="#FF9500"/>
<path d="M48.1905 30.0554C47.9555 30.4192 47.7625 30.6984 47.6199 30.9015C47.3058 30.6769 46.9485 30.5213 46.571 30.4446C46.0983 30.312 45.6101 30.2437 45.1194 30.2415C44.7205 30.2293 44.3242 30.3104 43.9615 30.4784C43.8252 30.5277 43.7076 30.6185 43.6248 30.7383C43.5421 30.8581 43.4985 31.0009 43.5 31.1469C43.5041 31.2221 43.5302 31.2944 43.575 31.3547C43.6198 31.4149 43.6813 31.4604 43.7517 31.4854C43.9605 31.5739 44.181 31.6309 44.4062 31.6546L45.3124 31.7308C45.6397 31.7308 45.9753 31.7985 46.3025 31.8492C46.6082 31.9009 46.9087 31.9802 47.2004 32.0862C47.4604 32.1712 47.6925 32.3263 47.8716 32.5346C48.0435 32.7498 48.1328 33.0201 48.1233 33.2961C48.1203 33.59 48.047 33.8788 47.9097 34.1381C47.7724 34.3973 47.5751 34.6194 47.3346 34.7854C46.7118 35.2307 45.9571 35.4486 45.195 35.4031C44.6596 35.4093 44.1259 35.341 43.6091 35.2C43.2449 35.115 42.8946 34.9783 42.5686 34.7938C42.3721 34.6637 42.1918 34.5103 42.0316 34.3369L42.7364 33.4907C43.418 34.0628 44.2835 34.3637 45.1698 34.3369C45.3776 34.3402 45.5853 34.3261 45.7907 34.2946C45.9913 34.2697 46.1884 34.2214 46.378 34.1507C46.5486 34.0905 46.7035 33.9921 46.8312 33.8631C46.9402 33.7396 46.9999 33.5799 46.999 33.4146C46.9991 33.3244 46.9749 33.2359 46.9291 33.1584C46.8833 33.0809 46.8176 33.0174 46.7389 32.9746C46.5324 32.8586 46.3033 32.7893 46.0676 32.7715C45.7674 32.7245 45.4649 32.6934 45.1614 32.6784L44.1545 32.5769C43.8467 32.5341 43.5434 32.4633 43.2483 32.3654C42.9836 32.2805 42.7481 32.1222 42.5686 31.9084C42.3889 31.6649 42.2998 31.3654 42.3169 31.0623C42.3189 30.7771 42.3981 30.4979 42.546 30.2549C42.6939 30.0118 42.9048 29.8141 43.156 29.6831C43.7904 29.3069 44.5183 29.1219 45.2537 29.15C45.822 29.1478 46.3875 29.2305 46.9318 29.3954C47.3832 29.5472 47.808 29.77 48.1905 30.0554Z" fill="#FF9500"/>
<path d="M55.7925 29.4038V30.3854H53.4934V35.2085H52.4446V30.3854H50.2042V29.4038H55.7925Z" fill="#FF9500"/>
<path d="M63.9064 35.2085H62.6814L61.9598 33.6854H58.4944L57.6553 35.2085H56.3799L59.7362 29.37H61.0116L63.9064 35.2085ZM60.3319 30.2669L59.023 32.7038H61.4899L60.3319 30.2669Z" fill="#FF9500"/>
<path d="M72.1966 29.4038V35.2085H70.8624L67.2376 30.7408V35.2085H66.1636V29.4038H67.5229L71.1477 33.8462V29.4038H72.1966Z" fill="#FF9500"/>
<path d="M80.151 29.4038V30.3854H77.8519V35.2085H76.8031V30.3854H74.5627V29.4038H80.151Z" fill="#FF9500"/>
<path d="M29.6551 56.6923C31.4806 56.6923 33.2651 57.2382 34.783 58.2609C36.3008 59.2837 37.4838 60.7374 38.1824 62.4381C38.881 64.1389 39.0638 66.0103 38.7077 67.8158C38.3515 69.6214 37.4725 71.2798 36.1816 72.5815C34.8908 73.8832 33.2462 74.7697 31.4558 75.1288C29.6654 75.488 27.8095 75.3037 26.123 74.5992C24.4365 73.8947 22.9949 72.7017 21.9808 71.1711C20.9666 69.6404 20.4252 67.8409 20.4252 66C20.4252 63.5314 21.3977 61.164 23.1286 59.4185C24.8595 57.6729 27.2072 56.6923 29.6551 56.6923ZM29.6551 55C27.4977 55 25.3888 55.6451 23.5949 56.8538C21.8011 58.0625 20.403 59.7805 19.5774 61.7905C18.7518 63.8005 18.5358 66.0122 18.9567 68.146C19.3776 70.2798 20.4164 72.2398 21.942 73.7782C23.4675 75.3165 25.4111 76.3642 27.5271 76.7886C29.643 77.2131 31.8363 76.9952 33.8294 76.1627C35.8226 75.3301 37.5262 73.9202 38.7248 72.1113C39.9234 70.3023 40.5632 68.1756 40.5632 66C40.5632 63.0826 39.4139 60.2847 37.3683 58.2218C35.3226 56.1589 32.5481 55 29.6551 55Z" fill="#FF9500"/>
<path d="M29.6551 62.6154C30.3189 62.6154 30.9678 62.8139 31.5198 63.1858C32.0717 63.5577 32.5019 64.0863 32.7559 64.7048C33.01 65.3232 33.0764 66.0038 32.9469 66.6603C32.8174 67.3169 32.4978 67.9199 32.0284 68.3933C31.559 68.8666 30.9609 69.189 30.3099 69.3196C29.6588 69.4502 28.984 69.3832 28.3707 69.127C27.7574 68.8708 27.2332 68.437 26.8644 67.8804C26.4956 67.3238 26.2988 66.6694 26.2988 66C26.2988 65.1023 26.6524 64.2415 27.2818 63.6067C27.9112 62.972 28.7649 62.6154 29.6551 62.6154ZM29.6551 60.9231C28.6594 60.9231 27.686 61.2208 26.8581 61.7787C26.0302 62.3365 25.3849 63.1294 25.0038 64.0571C24.6228 64.9848 24.5231 66.0056 24.7173 66.9904C24.9116 67.9753 25.3911 68.8799 26.0952 69.5899C26.7993 70.3 27.6963 70.7835 28.6729 70.9794C29.6495 71.1753 30.6618 71.0747 31.5817 70.6905C32.5016 70.3062 33.2879 69.6555 33.8411 68.8206C34.3943 67.9857 34.6896 67.0041 34.6896 66C34.6896 64.6535 34.1592 63.3622 33.215 62.4101C32.2709 61.458 30.9903 60.9231 29.6551 60.9231Z" fill="#FF9500"/>
<path d="M126.988 56.6923C128.814 56.6923 130.598 57.2382 132.116 58.2609C133.634 59.2837 134.817 60.7374 135.516 62.4381C136.214 64.1389 136.397 66.0103 136.041 67.8158C135.685 69.6214 134.806 71.2798 133.515 72.5815C132.224 73.8832 130.58 74.7697 128.789 75.1288C126.999 75.488 125.143 75.3037 123.456 74.5992C121.77 73.8947 120.328 72.7017 119.314 71.1711C118.3 69.6404 117.759 67.8409 117.759 66C117.759 63.5314 118.731 61.164 120.462 59.4185C122.193 57.6729 124.541 56.6923 126.988 56.6923ZM126.988 55C124.831 55 122.722 55.6451 120.928 56.8538C119.134 58.0625 117.736 59.7805 116.911 61.7905C116.085 63.8005 115.869 66.0122 116.29 68.146C116.711 70.2798 117.75 72.2398 119.275 73.7782C120.801 75.3165 122.744 76.3642 124.86 76.7886C126.976 77.2131 129.17 76.9952 131.163 76.1627C133.156 75.3301 134.86 73.9202 136.058 72.1113C137.257 70.3023 137.897 68.1756 137.897 66C137.897 63.0826 136.747 60.2847 134.702 58.2218C132.656 56.1589 129.881 55 126.988 55Z" fill="#FF9500"/>
<path d="M126.988 62.6154C127.652 62.6154 128.301 62.8139 128.853 63.1858C129.405 63.5577 129.835 64.0863 130.089 64.7048C130.343 65.3232 130.41 66.0038 130.28 66.6603C130.151 67.3169 129.831 67.9199 129.362 68.3933C128.892 68.8666 128.294 69.189 127.643 69.3196C126.992 69.4502 126.317 69.3832 125.704 69.127C125.091 68.8708 124.567 68.437 124.198 67.8804C123.829 67.3238 123.632 66.6694 123.632 66C123.632 65.1023 123.986 64.2415 124.615 63.6067C125.245 62.972 126.098 62.6154 126.988 62.6154ZM126.988 60.9231C125.993 60.9231 125.019 61.2208 124.191 61.7787C123.364 62.3365 122.718 63.1294 122.337 64.0571C121.956 64.9848 121.856 66.0056 122.051 66.9904C122.245 67.9753 122.724 68.8799 123.429 69.5899C124.133 70.3 125.03 70.7835 126.006 70.9794C126.983 71.1753 127.995 71.0747 128.915 70.6905C129.835 70.3062 130.621 69.6555 131.174 68.8206C131.728 67.9857 132.023 67.0041 132.023 66C132.023 64.6535 131.493 63.3622 130.548 62.4101C129.604 61.458 128.324 60.9231 126.988 60.9231Z" fill="#FF9500"/>
</g>
<line x1="1" y1="77" x2="162" y2="77" stroke="#FF9500" stroke-width="2" stroke-linecap="round" stroke-dasharray="6 6 6 6 6 6"/>
<defs>
<clipPath id="clip0">
<rect width="146" height="77" fill="white" transform="translate(7)"/>
</clipPath>
</defs>
</svg>
