<svg width="32" height="37" viewBox="0 0 32 37" fill="none" xmlns="http://www.w3.org/2000/svg">
<path d="M31.0524 4.24142C31.0524 4.24142 26.9893 0.314941 15.8057 0.314941C4.62217 0.314941 0.559079 4.28149 0.559079 4.28149C0.317708 5.804 0.197021 7.40665 0.197021 9.00929C0.197021 20.8288 6.51291 31.1659 15.8057 36.2943C25.0985 31.1258 31.4144 20.8288 31.4144 8.96922C31.4144 7.36658 31.2937 5.804 31.0524 4.24142Z" fill="white"/>
<path d="M26.7485 6.99893C26.8553 7.0708 26.9445 7.13493 27.0168 7.1893C27.1655 8.27904 27.2399 9.37115 27.2399 10.4894C27.2399 19.5175 22.6157 27.3502 15.8041 31.4346C8.99648 27.3796 4.37183 19.5192 4.37183 10.5218C4.37183 9.4029 4.44629 8.2868 4.59415 7.21953C4.66729 7.16384 4.75803 7.09782 4.8672 7.02363C5.25574 6.75963 5.87957 6.39103 6.77719 6.01661C8.56976 5.26886 11.4743 4.48956 15.8059 4.48956C20.1387 4.48956 23.0445 5.26125 24.8379 6.00178C25.7359 6.37258 26.3599 6.73757 26.7485 6.99893ZM27.2565 7.3844L27.2572 7.3851C27.2578 7.3856 27.2575 7.38538 27.2565 7.3844Z" stroke="#FF9500" stroke-width="2"/>
<path d="M15.5413 0.314941C26.9144 0.314941 31.0463 4.24142 31.0463 4.24142C31.2918 5.804 31.4145 7.36658 31.4145 8.96922C31.4145 20.8288 24.9916 31.1258 15.5413 36.2943V0.314941Z" fill="black" fill-opacity="0.06"/>
<mask id="path-4-outside-1" maskUnits="userSpaceOnUse" x="7.13379" y="8.83887" width="17" height="11" fill="black">
<rect fill="white" x="7.13379" y="8.83887" width="17" height="11"/>
<path d="M22.9488 9.83887L14.5085 14.3752L16.9877 14.3941L22.9488 9.83887ZM13.1776 17.3215L15.6476 15.4313C11.4656 16.1141 8.79922 17.4868 8.13379 17.872C8.39026 17.872 12.0617 17.8271 14.7973 19.3604L16.759 17.0427C15.5594 17.0287 14.361 17.1228 13.1776 17.3238V17.3215Z"/>
<path d="M13.1776 17.3215L15.6522 15.403C11.4702 16.0952 8.79922 17.4868 8.13379 17.872C8.39026 17.872 12.0617 17.8271 14.7973 19.3628L16.7659 17.0427C15.564 17.0283 14.3632 17.1232 13.1776 17.3262V17.3215Z"/>
<path d="M16.9877 14.3941H19.021L22.9488 9.83887L16.9877 14.3941ZM13.1776 17.3215C14.3609 17.1185 15.5592 17.0212 16.759 17.0308L18.4017 15.1147C17.4198 15.1785 16.5025 15.2825 15.6407 15.4219L13.1776 17.3215Z"/>
<path d="M19.021 14.4083H20.6383L22.9488 9.83887L19.021 14.4083ZM16.759 17.0308C17.5652 17.0429 18.368 17.1394 19.155 17.3191L20.3102 15.0533C19.6571 15.0533 19.0263 15.0761 18.4179 15.1218L16.759 17.0308Z"/>
</mask>
<path d="M22.9488 9.83887L14.5085 14.3752L16.9877 14.3941L22.9488 9.83887ZM13.1776 17.3215L15.6476 15.4313C11.4656 16.1141 8.79922 17.4868 8.13379 17.872C8.39026 17.872 12.0617 17.8271 14.7973 19.3604L16.759 17.0427C15.5594 17.0287 14.361 17.1228 13.1776 17.3238V17.3215Z" fill="#127DF3"/>
<path d="M13.1776 17.3215L15.6522 15.403C11.4702 16.0952 8.79922 17.4868 8.13379 17.872C8.39026 17.872 12.0617 17.8271 14.7973 19.3628L16.7659 17.0427C15.564 17.0283 14.3632 17.1232 13.1776 17.3262V17.3215Z" fill="#127DF3"/>
<path d="M16.9877 14.3941H19.021L22.9488 9.83887L16.9877 14.3941ZM13.1776 17.3215C14.3609 17.1185 15.5592 17.0212 16.759 17.0308L18.4017 15.1147C17.4198 15.1785 16.5025 15.2825 15.6407 15.4219L13.1776 17.3215Z" fill="#127DF3"/>
<path d="M19.021 14.4083H20.6383L22.9488 9.83887L19.021 14.4083ZM16.759 17.0308C17.5652 17.0429 18.368 17.1394 19.155 17.3191L20.3102 15.0533C19.6571 15.0533 19.0263 15.0761 18.4179 15.1218L16.759 17.0308Z" fill="#127DF3"/>
<path d="M23.0095 9.91832C23.0534 9.88479 23.0618 9.82203 23.0283 9.77815C22.9948 9.73427 22.932 9.72588 22.8881 9.75941L23.0095 9.91832ZM16.927 14.3146C16.8831 14.3482 16.8747 14.4109 16.9082 14.4548C16.9418 14.4987 17.0045 14.5071 17.0484 14.4736L16.927 14.3146ZM17.0484 14.4736L23.0095 9.91832L22.8881 9.75941L16.927 14.3146L17.0484 14.4736ZM22.9488 9.83887L23.1273 9.92912C23.1667 9.85117 23.151 9.75667 23.0885 9.69569C23.0259 9.63471 22.9311 9.62135 22.8541 9.6627L22.9488 9.83887ZM14.5085 14.3752L14.4138 14.199C14.3333 14.2423 14.2924 14.3346 14.3144 14.4233C14.3363 14.512 14.4156 14.5745 14.507 14.5752L14.5085 14.3752ZM16.9877 14.3941L16.9862 14.5941H16.9877V14.3941ZM13.1776 17.3215L13.0551 17.1634C13.0062 17.2013 12.9776 17.2596 12.9776 17.3215H13.1776ZM15.6476 15.4313L15.7691 15.5901C15.842 15.5344 15.8676 15.4363 15.8312 15.3521C15.7949 15.2678 15.7059 15.2192 15.6154 15.2339L15.6476 15.4313ZM8.13379 17.872L8.03361 17.6989C7.9553 17.7442 7.91717 17.8364 7.94063 17.9238C7.9641 18.0112 8.04331 18.072 8.13379 18.072V17.872ZM14.7973 19.3604L14.6995 19.5349C14.7831 19.5817 14.8881 19.5628 14.95 19.4897L14.7973 19.3604ZM16.759 17.0427L16.9116 17.1719C16.9617 17.1127 16.9731 17.03 16.9409 16.9596C16.9087 16.8891 16.8387 16.8436 16.7613 16.8427L16.759 17.0427ZM13.1776 17.3238H12.9776C12.9776 17.3827 13.0036 17.4386 13.0486 17.4766C13.0936 17.5146 13.1531 17.5309 13.2111 17.521L13.1776 17.3238ZM15.6522 15.403L15.7748 15.561C15.8471 15.5049 15.8721 15.4068 15.8355 15.3229C15.7988 15.239 15.7099 15.1907 15.6196 15.2057L15.6522 15.403ZM14.7973 19.3628L14.6994 19.5372C14.7829 19.5841 14.8879 19.5652 14.9498 19.4922L14.7973 19.3628ZM16.7659 17.0427L16.9184 17.1721C16.9685 17.113 16.98 17.0302 16.9479 16.9597C16.9157 16.8892 16.8458 16.8436 16.7683 16.8427L16.7659 17.0427ZM13.1776 17.3262H12.9776C12.9776 17.3851 13.0037 17.4411 13.0487 17.4791C13.0938 17.5171 13.1533 17.5333 13.2114 17.5233L13.1776 17.3262ZM19.021 14.3941V14.5941C19.0791 14.5941 19.1344 14.5688 19.1724 14.5247L19.021 14.3941ZM18.4017 15.1147L18.5536 15.2449C18.6059 15.1838 18.6166 15.0973 18.5806 15.0253C18.5447 14.9533 18.4691 14.9099 18.3888 14.9151L18.4017 15.1147ZM15.6407 15.4219L15.6087 15.2244C15.5759 15.2297 15.5449 15.2432 15.5185 15.2635L15.6407 15.4219ZM19.021 14.4083L18.8693 14.2779C18.8183 14.3372 18.8066 14.4207 18.8392 14.4917C18.8718 14.5628 18.9428 14.6083 19.021 14.6083V14.4083ZM20.6383 14.4083V14.6083C20.7137 14.6083 20.7828 14.5658 20.8168 14.4985L20.6383 14.4083ZM19.155 17.3191L19.1104 17.5141C19.1998 17.5345 19.2915 17.4916 19.3331 17.4099L19.155 17.3191ZM20.3102 15.0533L20.4884 15.1441C20.52 15.0821 20.5171 15.0082 20.4808 14.9488C20.4444 14.8895 20.3798 14.8533 20.3102 14.8533V15.0533ZM18.4179 15.1218L18.4029 14.9224C18.3504 14.9263 18.3015 14.9508 18.2669 14.9906L18.4179 15.1218ZM22.8541 9.6627L14.4138 14.199L14.6032 14.5514L23.0435 10.015L22.8541 9.6627ZM14.507 14.5752L16.9862 14.5941L16.9892 14.1941L14.51 14.1752L14.507 14.5752ZM13.2992 17.4803L15.7691 15.5901L15.526 15.2725L13.0561 17.1626L13.2992 17.4803ZM15.6154 15.2339C11.4055 15.9213 8.71632 17.3037 8.03361 17.6989L8.23397 18.0451C8.88211 17.67 11.5256 16.307 15.6798 15.6287L15.6154 15.2339ZM8.13379 18.072C8.39526 18.072 12.0155 18.0305 14.6995 19.5349L14.8951 19.186C12.1079 17.6237 8.38525 17.672 8.13379 17.672V18.072ZM14.95 19.4897L16.9116 17.1719L16.6063 16.9135L14.6447 19.2312L14.95 19.4897ZM16.7613 16.8427C15.5497 16.8286 14.3394 16.9236 13.1442 17.1266L13.2111 17.521C14.3827 17.322 15.5691 17.2288 16.7566 17.2426L16.7613 16.8427ZM13.3776 17.3238V17.3215H12.9776V17.3238H13.3776ZM13.3002 17.4795L15.7748 15.561L15.5297 15.2449L13.0551 17.1634L13.3002 17.4795ZM15.6196 15.2057C11.4092 15.9026 8.71551 17.3042 8.03361 17.6989L8.23397 18.0451C8.88292 17.6695 11.5312 16.2879 15.6849 15.6003L15.6196 15.2057ZM8.13379 18.072C8.39525 18.072 12.0154 18.0305 14.6994 19.5372L14.8952 19.1884C12.1079 17.6237 8.38526 17.672 8.13379 17.672V18.072ZM14.9498 19.4922L16.9184 17.1721L16.6134 16.9133L14.6448 19.2334L14.9498 19.4922ZM16.7683 16.8427C15.5542 16.8282 14.3413 16.924 13.1439 17.1291L13.2114 17.5233C14.385 17.3224 15.5737 17.2285 16.7635 17.2427L16.7683 16.8427ZM13.3776 17.3262V17.3215H12.9776V17.3262H13.3776ZM16.9877 14.5941H19.021V14.1941H16.9877V14.5941ZM19.1724 14.5247L23.1003 9.96947L22.7974 9.70826L18.8695 14.2635L19.1724 14.5247ZM13.2115 17.5186C14.383 17.3176 15.5695 17.2213 16.7574 17.2308L16.7606 16.8309C15.5489 16.8211 14.3388 16.9193 13.1438 17.1243L13.2115 17.5186ZM16.9108 17.161L18.5536 15.2449L18.2499 14.9845L16.6071 16.9007L16.9108 17.161ZM18.3888 14.9151C17.4008 14.9793 16.4772 15.084 15.6087 15.2244L15.6726 15.6193C16.5278 15.481 17.4387 15.3777 18.4147 15.3143L18.3888 14.9151ZM15.5185 15.2635L13.0555 17.1631L13.2998 17.4798L15.7628 15.5802L15.5185 15.2635ZM19.021 14.6083H20.6383V14.2083H19.021V14.6083ZM20.8168 14.4985L23.1273 9.92912L22.7703 9.74862L20.4598 14.318L20.8168 14.4985ZM22.7972 9.70849L18.8693 14.2779L19.1726 14.5387L23.1005 9.96924L22.7972 9.70849ZM16.756 17.2308C17.5482 17.2426 18.3371 17.3375 19.1104 17.5141L19.1995 17.1241C18.3989 16.9414 17.5821 16.8431 16.7619 16.8309L16.756 17.2308ZM19.3331 17.4099L20.4884 15.1441L20.132 14.9624L18.9768 17.2282L19.3331 17.4099ZM20.3102 14.8533C19.6525 14.8533 19.0167 14.8763 18.4029 14.9224L18.4329 15.3212C19.036 15.276 19.6618 15.2533 20.3102 15.2533V14.8533ZM18.2669 14.9906L16.608 16.8997L16.9099 17.162L18.5689 15.253L18.2669 14.9906Z" fill="#127DF3" mask="url(#path-4-outside-1)"/>
</svg>
